<?xml version="1.0" encoding="utf-8"?>
<!-- Generator: Adobe Illustrator 22.0.1, SVG Export Plug-In . SVG Version: 6.00 Build 0)  -->
<!DOCTYPE svg PUBLIC "-//W3C//DTD SVG 1.1//EN" "http://www.w3.org/Graphics/SVG/1.1/DTD/svg11.dtd">
<svg version="1.1" id="Layer_1" xmlns="http://www.w3.org/2000/svg" xmlns:xlink="http://www.w3.org/1999/xlink" x="0px" y="0px"
	 viewBox="0 0 229 150" style="enable-background:new 0 0 229 150;" xml:space="preserve">
<style type="text/css">
	.st0{fill-rule:evenodd;clip-rule:evenodd;fill:#77CDD1;}
	.st1{fill:#FFFFFF;}
</style>
<g>
	<g>
		<path class="st0" d="M113.3,11h2.3c6.5,1.5,5.3,12.5-1.4,12.3C108.1,23,107,12.3,113.3,11"/>
		<path class="st0" d="M98.7,22.6c7.7-1.5,8.9,10.7,2.3,11.9C93.6,35.8,91.6,24,98.7,22.6"/>
		<path class="st0" d="M128.2,22.6c8.9-1.7,8.5,13.4,0,11.9C122.7,33.6,122.3,23.7,128.2,22.6"/>
		<path class="st0" d="M67,85.9v-6c1.2-8.6,5.8-16.4,8.8-24.7c1.6-4.5,2.7-9.2,2.1-14.2c-0.6-4.7-2.5-8.6-4-12.4
			c6.7,1.3,11.6,4.4,15.8,8.6c4,4,7.2,9.6,7.7,16.7c0.5,6.9-1.2,13.8-2.3,20.5c-1.1,7-1.6,13.7-0.3,20.9c1.1,6.6,3.2,12.1,5.8,17
			c2.6,4.9,5.9,9.1,9.1,13.5C87,120.8,69.7,110.6,67,85.9"/>
		<path class="st0" d="M154.9,28.9c0.2,0.9-0.7,2.4-1.2,3.7c-1.4,3.4-3.1,8.5-2.8,13.5c0.8,13.1,10.1,21.7,11,34.2
			c1.1,14.5-4.8,25.1-12.3,31.9c-7.8,7.2-18.1,11.3-30.2,13.9c-0.4-0.7,0.6-1.1,0.9-1.4c6.1-7.7,11.8-16.7,13.9-28.8
			c1.2-7.2,1-14-0.2-20.9c-1.1-6.7-2.8-13.3-2.4-20.2c0.7-13.9,11.2-22.9,23.1-26H154.9z"/>
		<path class="st0" d="M114.7,125.3c-10.1-10.5-17.8-23.7-17.2-43.1c0.6-17.5,9.8-33.2,17-44.2c0.1,0,0.2,0.1,0.2,0.2
			c7.7,11.9,15.5,25.3,16.8,43.8C132.9,101.7,123.7,114.5,114.7,125.3"/>
		<path class="st0" d="M114.8,128c0.5,1.9,2.6,3.9,3,6.1c1,6.3-6.9,6.7-6,0.2C112.1,131.9,114.5,129.6,114.8,128"/>
	</g>
	<g>
		<path class="st1" d="M26.2,54.6c1.1,0,2.2,0.7,2.2,1.9c0,0.2-0.1,0.4-2.4,9.5c0.8-0.3,1.8-0.5,2.9-0.5c4.1,0,5.8,3.8,5.8,8.6
			c0,3.6-1,7.8-2.7,11.2c1.8-0.2,3.7-1.1,5-3.8c0.3-0.6,0.6-0.8,0.9-0.8c0.2,0,0.4,0.2,0.4,0.5c0,0.3-0.1,0.5-0.2,0.8
			c-1.4,3.1-3.9,4.9-7.1,5.1c-2,3.2-4.6,5.4-7.6,5.4c-3.2,0-5.1-2.6-5.1-8.3c0-2.5,0.4-5.5,1.1-9.2c2.8-13.2,3.4-15.9,4.1-18.4
			C23.8,55.2,25,54.6,26.2,54.6z M22.6,82.6c-0.1,0.9-0.2,1.8-0.2,2.6c0,2.9,0.7,4.8,2.4,4.8c1,0,1.9-1.3,2.7-3.2
			C25.5,86.1,23.8,84.6,22.6,82.6z M24,76.3c0,3.6,1.1,7.2,4.2,8.5c1-3.3,1.6-7.6,1.6-11c0-3.3-0.6-6-2-6.1
			C25.8,67.7,24,71.7,24,76.3z"/>
		<path class="st1" d="M50.6,88c0,0.8,0.3,1.3,0.7,1.3c1.1,0,2.7-2.8,5.2-7.8c0.3-0.6,0.7-0.9,0.9-0.9c0.2,0,0.3,0.2,0.3,0.5
			c0,0.2-0.1,0.5-0.2,0.9c-0.7,1.8-4,10.4-8,10.4c-1.6,0-3.6-0.9-3.6-4.8c0-0.3,0-0.6,0.1-1c-1.7,3.6-3.7,5.8-5.4,5.8
			c-2.8,0-4-3-4-7.1c0-7.9,4.6-19.7,10.6-19.7c2.1,0,3.4,2.2,3.5,3.9H51c1.3,0,2.9,1.1,2.9,3c0,0.3,0,0.5-0.1,0.8
			C52.5,79.9,50.6,85.5,50.6,88z M47.8,78.1l1.7-7.5c0-0.9-0.2-2-1.4-2c-3.5,0-6.7,12.2-6.7,17.7c0,1.6,0.3,2.6,0.9,2.6
			C44.2,88.9,46.5,83.9,47.8,78.1z"/>
		<path class="st1" d="M64.4,54.6c1.1,0,2.2,0.7,2.2,1.9c0,0.2-0.1,0.4-2.4,9.5c0.8-0.3,1.8-0.5,2.9-0.5c4.1,0,5.8,3.8,5.8,8.6
			c0,3.6-1,7.8-2.7,11.2c1.8-0.2,3.7-1.1,5-3.8c0.3-0.6,0.6-0.8,0.9-0.8c0.2,0,0.4,0.2,0.4,0.5c0,0.3-0.1,0.5-0.2,0.8
			c-1.4,3.1-3.9,4.9-7.1,5.1c-2,3.2-4.6,5.4-7.6,5.4c-3.2,0-5.1-2.6-5.1-8.3c0-2.5,0.4-5.5,1.1-9.2c2.8-13.2,3.4-15.9,4.1-18.4
			C62,55.2,63.2,54.6,64.4,54.6z M60.8,82.6c-0.1,0.9-0.2,1.8-0.2,2.6c0,2.9,0.7,4.8,2.4,4.8c1,0,1.9-1.3,2.7-3.2
			C63.6,86.1,62,84.6,60.8,82.6z M62.2,76.3c0,3.6,1.1,7.2,4.2,8.5c1-3.3,1.6-7.6,1.6-11c0-3.3-0.6-6-2-6.1
			C63.9,67.7,62.2,71.7,62.2,76.3z"/>
		<path class="st1" d="M88.8,88c0,0.8,0.3,1.3,0.7,1.3c1.1,0,2.7-2.8,5.2-7.8c0.3-0.6,0.7-0.9,0.9-0.9c0.2,0,0.3,0.2,0.3,0.5
			c0,0.2-0.1,0.5-0.2,0.9c-0.7,1.8-4,10.4-8,10.4c-1.6,0-3.6-0.9-3.6-4.8c0-0.3,0-0.6,0.1-1c-1.7,3.6-3.7,5.8-5.4,5.8
			c-2.8,0-4-3-4-7.1c0-7.9,4.6-19.7,10.6-19.7c2.1,0,3.4,2.2,3.5,3.9h0.3c1.3,0,2.9,1.1,2.9,3c0,0.3,0,0.5-0.1,0.8
			C90.6,79.9,88.8,85.5,88.8,88z M85.9,78.1l1.7-7.5c0-0.9-0.2-2-1.4-2c-3.5,0-6.7,12.2-6.7,17.7c0,1.6,0.3,2.6,0.9,2.6
			C82.3,88.9,84.6,83.9,85.9,78.1z"/>
		<path class="st1" d="M117.4,67.7c-2.9,0-6.8,9.9-6.8,16.3c0,3.5,1,5.6,3.8,5.6c4.1,0,7.9-5.2,9.3-8.1c0.3-0.6,0.6-0.8,0.8-0.8
			c0.2,0,0.4,0.2,0.4,0.5c0,0.2-0.1,0.5-0.2,0.8c-1.8,4.5-6.1,10.6-12.1,10.6c-5.2,0-7.3-4.3-7.3-9.6c0-7.8,4.5-17.4,10.1-17.4
			c1.1,0,2.2,0.5,2.8,1c2.4,0.4,3.2,3.1,3.2,6c0,3.8-1,7-3.9,7c-1.2,0-2.3-0.7-2.3-1.6c0-2.1,3.3-3.9,3.3-8.2
			C118.6,68.6,117.9,67.7,117.4,67.7z"/>
		<path class="st1" d="M137.2,86.3c-2,3.6-4.8,6.2-7.8,6.2c-4.2,0-5.9-3.9-5.9-8.7c0-3.9,1-7.6,2.4-10.5c0.4-0.9,1.3-2.2,2.6-2
			c1-3.3,3.1-5.8,6.4-5.8c4.2,0,5.9,3.6,5.9,8c0,3.6-1,7.8-2.8,11.3c1.9-0.1,3.9-0.9,5.1-3.3c0.3-0.5,0.6-0.9,0.9-0.9
			c0.2,0,0.3,0.1,0.3,0.4c0,0.2-0.1,0.5-0.2,0.9C143.5,83.9,140.8,86.3,137.2,86.3z M133.7,85.8c-2.8-0.9-4.3-3.1-5.2-5.6
			c-0.4,1.7-0.6,3.4-0.6,4.9c0,2.8,0.7,4.9,2.4,4.9c0.2,0,0.3,0,0.5-0.1C131.8,89.8,132.8,88.1,133.7,85.8z M130.9,76.3
			c0,3.1,0.9,6.2,3.4,7.6c1.1-3.7,2-8.4,2-11.8c0-2.7-0.5-4.7-1.7-4.7C132.8,67.5,130.9,71.8,130.9,76.3z"/>
		<path class="st1" d="M147.4,83.7c-0.4,1.7-0.7,3.6-1.1,5.7c5.7-0.8,11.6-3.1,13.6-11.2c3-13.8,6-25.9,12.8-25.9
			c1.3,0,2.2,0.7,2.4,1.5c0.8,0.4,2,1.6,2,4.5c0,12.5-8.4,23.9-13.4,24.1c-0.4,2.1-0.9,4.3-1.4,6.9c5.7-0.7,10.3-2.4,13.1-8
			c0.3-0.5,0.6-0.8,0.8-0.8c0.2,0,0.4,0.2,0.4,0.6c0,0.2-0.1,0.5-0.2,0.7c-2.6,6.2-7.5,8.8-13.9,10c1.9,0.9,3.4,4.9,3.4,8.7
			c0,3.5-1.4,6.7-5.1,6.7c-3.2,0-4.3-3-4.3-7.6c0-4,0.8-9.3,2-15.1c-2.9,4.1-7.5,6.4-12.1,7.4c1.9,0.8,3.6,4.8,3.6,8.3
			c0,3.1-1.3,6-5,6c-3.2,0-4.4-2.9-4.4-7.5c-0.1-4.7,1.2-11.1,2.7-18.3c3.1-14.6,5.8-27.1,13-27.1c1.3,0,2.2,0.7,2.5,1.5
			c0.8,0.4,2,1.6,2,4.5C160.8,71.6,153.2,84.3,147.4,83.7z M147,99.9c0-1.8-0.4-4-1.5-6.4c-1.6,8.4-1.7,8.9-1.7,9.3
			c0,1.1,0.4,1.8,0.9,1.8C146,104.6,147,102.8,147,99.9z M157.4,55.4c-1-0.1-1.7,1.1-2.5,2.8c-3.6,7.5-5.7,16.5-7.2,23.9
			c5.1-3.6,10.7-19.8,10.7-24.6C158.4,56.2,158.4,55.4,157.4,55.4z M163.1,99.9c0-1.9-0.4-4.2-1.4-6.4c-1.9,9.7-2,10.2-2,10.6
			c0,1.1,0.4,1.8,0.9,1.8C161.9,105.8,163.1,103.3,163.1,99.9z M173.8,54.4c-1-0.1-1.7,1.1-2.5,2.8c-3.5,7.4-5.8,16.7-7.3,23.6
			c4.8-4.3,10.8-19.5,10.8-24.4C174.8,55.2,174.8,54.4,173.8,54.4z"/>
		<path class="st1" d="M191.6,71.1c0,5.1-3.7,13.4-11,12.3c-0.2,0-0.3,0-0.4,0c0,3.4,0.8,6.1,3.4,6.1c4.5,0,7.6-5.3,8.8-7.7
			c0.5-7.6,4.8-16.6,10-16.6c1.1,0,2.4,0.4,3,0.9c2.2,0.3,3.1,2.4,3.1,5.2c0,5.3-3.7,12.8-9,12.8c-0.7,0-1.5-0.2-2.3-0.5
			c0.1,3.2,1,5.6,3.4,5.6c6.1,0,8.9-8.5,9.8-8.5c0.2,0,0.4,0.2,0.4,0.5c0,0.2-0.1,0.5-0.2,0.7c-2.3,5.8-6,10.4-12,10.4
			c-4.1,0-6-3.4-6.2-7.8c-2.4,4.6-5.7,8-10.8,8c-4.5,0-6.3-4.1-6.3-9.1c0-7.9,4.5-18,10-18c1.1,0,2.4,0.4,3,0.9
			C190.5,66.7,191.6,68.7,191.6,71.1z M188.3,69.8c0-1-0.2-2.2-1-2.2c-3,0-6.6,8.3-7.1,14.6C184.5,81.6,188.3,74,188.3,69.8z
			 M205.4,69.3c0-1-0.2-2-1-2c-3.1,0-6.7,8.5-7.2,14.9C201.1,82.7,205.4,73.8,205.4,69.3z"/>
	</g>
</g>
</svg>
